<svg width="220" height="328" xmlns="http://www.w3.org/2000/svg"><g fill="#fff"><path d="M207.788 122c-3.311 0-6.175 1.209-8.607 3.644-2.397 2.4-3.622 5.285-3.622 8.6v24.49c0 23.574-8.365 43.746-25.096 60.515-16.73 16.77-36.893 25.163-60.454 25.163s-43.69-8.394-60.438-25.163c-16.748-16.77-25.113-36.941-25.113-60.515v-24.49c0-3.315-1.208-6.2-3.64-8.6-2.414-2.418-5.277-3.644-8.59-3.644-3.31 0-6.191 1.209-8.589 3.644-2.414 2.4-3.639 5.285-3.639 8.6v24.49c0 28.15 9.4 52.674 28.166 73.502 18.783 20.845 42 32.797 69.614 35.836v35.439H59.058c-3.312 0-6.175 1.209-8.573 3.644-2.449 2.418-3.64 5.284-3.64 8.6s1.191 6.183 3.64 8.601c2.398 2.418 5.278 3.644 8.573 3.644h101.867c3.312 0 6.192-1.209 8.607-3.644 2.415-2.435 3.622-5.285 3.622-8.6 0-3.317-1.207-6.183-3.622-8.601-2.415-2.418-5.278-3.644-8.607-3.644H122.22v-35.439c27.632-3.04 50.83-14.99 69.614-35.836C210.617 211.408 220 186.884 220 158.734v-24.49c0-3.315-1.225-6.2-3.64-8.6-2.397-2.418-5.277-3.644-8.572-3.644z"/><path d="M139.08 138.791V126.91H171v-19.487h-31.92V95.557H171V76.07h-31.92V64.222H171v-3.104c0-16.814-5.974-31.197-17.906-43.166C141.163 5.984 126.787 0 110 0 93.23 0 78.872 5.984 66.906 17.952 54.957 29.921 49 44.304 49 61.118v3.104h29.166V76.07H49v19.487h29.166v11.865H49v19.487h29.166v11.882H49V158.9c0 16.797 5.974 31.18 17.906 43.166C78.872 214.015 93.23 220 110 220s31.146-5.984 43.094-17.935C165.026 190.096 171 175.696 171 158.899v-20.108h-31.92z"/></g></svg>